<svg width="15.988159" height="16.000000" viewBox="0 0 15.9882 16" fill="none" xmlns="http://www.w3.org/2000/svg" xmlns:xlink="http://www.w3.org/1999/xlink">
	<desc>
			Created with Pixso.
	</desc>
	<g clip-path="url(#clip39_120)">
		<path d="M9.49292 12C9.21667 12 8.99341 11.7765 8.99341 11.5L8.99341 6C8.99341 5.7235 9.21667 5.5 9.49292 5.5C9.76929 5.5 9.99255 5.7235 9.99255 6L9.99255 11.5C9.99255 11.7765 9.76929 12 9.49292 12ZM6.49524 12C6.21887 12 5.99561 11.7765 5.99561 11.5L5.99561 6C5.99561 5.7235 6.21887 5.5 6.49524 5.5C6.77148 5.5 6.99487 5.7235 6.99487 6L6.99487 11.5C6.99487 11.7765 6.77148 12 6.49524 12ZM14.4893 3.5L11.9911 3.5L11.9911 2.5C11.9911 1.673 11.3241 1 10.5038 1L5.49597 1C4.66956 1 3.99707 1.673 3.99707 2.5L3.99707 3.5L1.4989 3.5C1.22266 3.5 0.999268 3.7235 0.999268 4C0.999268 4.2765 1.22266 4.5 1.4989 4.5L14.4893 4.5C14.7656 4.5 14.9889 4.2765 14.9889 4C14.9889 3.7235 14.7656 3.5 14.4893 3.5ZM4.99634 2.5C4.99634 2.2245 5.22058 2 5.49597 2L10.5038 2C10.7775 2 10.9918 2.2195 10.9918 2.5L10.9918 3.5L4.99634 3.5L4.99634 2.5ZM11.4935 15L4.49768 15C3.67126 15 2.99878 14.327 2.99878 13.5L2.99878 5.99249C2.99878 5.71651 3.22266 5.49249 3.49841 5.49249C3.77417 5.49249 3.99805 5.71651 3.99805 5.99249L3.99805 13.5C3.99805 13.776 4.22241 14 4.49768 14L11.4935 14C11.7693 14 11.9932 13.776 11.9932 13.5L11.9932 6.013C11.9932 5.737 12.2164 5.513 12.4928 5.513C12.769 5.513 12.9924 5.737 12.9924 6.013L12.9924 13.5C12.9924 14.327 12.3198 15 11.4935 15Z" fill-rule="evenodd" fill="#000000"/>
	</g>
	<defs>
		<clipPath id="clip39_120">
			<rect width="15.988158" height="16.000000" fill="white"/>
		</clipPath>
	</defs>
</svg>
