<svg width="15.988159" height="16.000000" viewBox="0 0 15.9882 16" fill="none" xmlns="http://www.w3.org/2000/svg" xmlns:xlink="http://www.w3.org/1999/xlink">
	<desc>
			Created with Pixso.
	</desc>
	<g clip-path="url(#clip39_116)">
		<path d="M13.2262 7.17372L13.2262 13.2402C13.2262 13.8494 12.7328 14.3432 12.124 14.3432L2.20435 14.3432C1.5957 14.3432 1.10217 13.8494 1.10217 13.2402L1.10217 3.31322C1.10217 2.70404 1.5957 2.21022 2.20435 2.21022L8.8175 2.21022L8.8175 1.10721L2.20435 1.10721C0.986938 1.10721 0 2.09486 0 3.31322L0 13.2402C0 14.4586 0.986938 15.4463 2.20435 15.4463L12.124 15.4463C13.3416 15.4463 14.3285 14.4586 14.3285 13.2402L14.3285 7.17372L13.2262 7.17372Z" fill-rule="evenodd" fill="#51404F"/>
		<path d="M5.99585 11.6795C5.91833 11.6917 5.82898 11.6987 5.73792 11.6987C5.3302 11.6987 4.95532 11.5585 4.65857 11.3237C4.29297 10.957 4.30408 10.4276 4.31506 9.5562C4.35803 8.87383 4.63745 8.26398 5.07141 7.8009L12.5209 0.34613C13.1381 -0.271545 14.0309 0.0372925 14.604 0.588776C14.7693 0.754227 15.2157 1.20647 15.381 1.36641C15.9321 1.91789 16.2683 2.82788 15.64 3.4621L8.18372 10.9239C7.72864 11.3702 7.11255 11.6537 6.43066 11.6793L5.99585 11.6795L5.99585 11.6795ZM5.44482 10.5434C5.64661 10.5696 5.87988 10.5845 6.11682 10.5845C6.22156 10.5845 6.32568 10.5816 6.42908 10.5758C6.8009 10.5511 7.14575 10.392 7.40747 10.1456L14.8795 2.68451C14.8795 2.68095 14.8796 2.67676 14.8796 2.67255C14.8796 2.45601 14.7814 2.26241 14.6272 2.13394C14.4607 1.97308 14.0033 1.51534 13.8435 1.34988C13.7104 1.19745 13.5157 1.10168 13.2988 1.10168L13.292 1.10172L5.84155 8.55801C5.5885 8.84508 5.44543 9.17929 5.41223 9.56064C5.40613 9.6588 5.40295 9.76579 5.40295 9.87355C5.40295 10.1097 5.41821 10.3423 5.44763 10.5704L5.44482 10.5434Z" fill-rule="evenodd" fill="#51404F"/>
	</g>
	<defs>
		<clipPath id="clip39_116">
			<rect width="15.988158" height="16.000000" fill="white"/>
		</clipPath>
	</defs>
</svg>
