<svg width="15.988159" height="16.000000" viewBox="0 0 15.9882 16" fill="none" xmlns="http://www.w3.org/2000/svg" xmlns:xlink="http://www.w3.org/1999/xlink">
	<desc>
			Created with Pixso.
	</desc>
	<g clip-path="url(#clip39_118)">
		<path d="M4.99634 1C4.3302 1 3.99707 1.33333 3.99707 2C3.99707 2.66667 4.3302 3 4.99634 3C5.66248 3 5.99561 2.66667 5.99561 2C5.99561 1.33333 5.66248 1 4.99634 1ZM10.9919 1C10.3257 1 9.99268 1.33333 9.99268 2C9.99268 2.66667 10.3257 3 10.9919 3C11.6581 3 11.9911 2.66667 11.9911 2C11.9911 1.33333 11.6581 1 10.9919 1ZM3.99707 6C3.99707 5.33333 4.3302 5 4.99634 5C5.66248 5 5.99561 5.33333 5.99561 6C5.99561 6.66667 5.66248 7 4.99634 7C4.3302 7 3.99707 6.66667 3.99707 6ZM10.9919 5C10.3257 5 9.99268 5.33333 9.99268 6C9.99268 6.66667 10.3257 7 10.9919 7C11.6581 7 11.9911 6.66667 11.9911 6C11.9911 5.33333 11.6581 5 10.9919 5ZM3.99707 10C3.99707 9.33333 4.3302 9 4.99634 9C5.66248 9 5.99561 9.33333 5.99561 10C5.99561 10.6667 5.66248 11 4.99634 11C4.3302 11 3.99707 10.6667 3.99707 10ZM4.99634 13C4.3302 13 3.99707 13.3333 3.99707 14C3.99707 14.6667 4.3302 15 4.99634 15C5.66248 15 5.99561 14.6667 5.99561 14C5.99561 13.3333 5.66248 13 4.99634 13ZM9.99268 10C9.99268 9.33333 10.3257 9 10.9919 9C11.6581 9 11.9911 9.33333 11.9911 10C11.9911 10.6667 11.6581 11 10.9919 11C10.3257 11 9.99268 10.6667 9.99268 10ZM10.9919 13C10.3257 13 9.99268 13.3333 9.99268 14C9.99268 14.6667 10.3257 15 10.9919 15C11.6581 15 11.9911 14.6667 11.9911 14C11.9911 13.3333 11.6581 13 10.9919 13Z" fill-rule="evenodd" fill="#000000" fill-opacity="0.900000"/>
	</g>
	<defs>
		<clipPath id="clip39_118">
			<rect width="15.988158" height="16.000000" fill="white"/>
		</clipPath>
	</defs>
</svg>
