<svg t="1655537041433" class="icon" viewBox="0 0 1024 1024" version="1.1" xmlns="http://www.w3.org/2000/svg" p-id="2138" data-spm-anchor-id="a313x.7781069.0.i0" width="16" height="16"><path d="M512 83.2c-234.666667 0-426.666667 192-426.666667 426.666667s192 426.666667 426.666667 426.666666 426.666667-192 426.666667-426.666666-192-426.666667-426.666667-426.666667z m0 810.666667c-211.2 0-384-172.8-384-384s172.8-384 384-384 384 172.8 384 384c0 213.333333-172.8 384-384 384z" p-id="2139"></path><path d="M674.133333 345.6c-8.533333-8.533333-21.333333-8.533333-29.866666 0l-134.4 134.4-134.4-134.4c-8.533333-8.533333-21.333333-8.533333-29.866667 0-8.533333 8.533333-8.533333 21.333333 0 29.866667l134.4 134.4-134.4 134.4c-8.533333 8.533333-8.533333 21.333333 0 29.866666 4.266667 4.266667 10.666667 6.4 14.933333 6.4 6.4 0 10.666667-2.133333 14.933334-6.4l136.533333-134.4 134.4 134.4c4.266667 4.266667 10.666667 6.4 14.933333 6.4 6.4 0 10.666667-2.133333 14.933334-6.4 8.533333-8.533333 8.533333-21.333333 0-29.866666l-134.4-134.4 134.4-134.4c6.4-8.533333 6.4-21.333333-2.133334-29.866667z" p-id="2140"></path></svg>
